# xmcd CD database file
#
# Track frame offsets:
#	150
#	33091
#	65280
#	87972
#	122538
#	152696
#	182187
#	214585
#	258959
#	283468
#
# Disc length: 4220 seconds
#
# Revision: 2
# Processed by: cddbd v1.5.2PL0 Copyright (c) Steve Scherf et al.
# Submitted via: CDex 1.70beta2
#
DISCID=86107a0a
DTITLE=Fat Freddy's Drop - Based On A True Story
DYEAR=2005
DGENRE=Rhythmic Soul
TTITLE0=Fat Freddy's Drop - Ernie
TTITLE1=Fat Freddy's Drop - Cay's Crays
TTITLE2=Fat Freddy's Drop - This Room
TTITLE3=Fat Freddy's Drop - Ray Ray
TTITLE4=Fat Freddy's Drop - Dark Days
TTITLE5=Fat Freddy's Drop - Flashback
TTITLE6=Fat Freddy's Drop - Roady
TTITLE7=Fat Freddy's Drop - Wandering Eye
TTITLE8=Fat Freddy's Drop - Del Fuego
TTITLE9=Fat Freddy's Drop - Hope
EXTD=YEAR: 2005
EXTT0=
EXTT1=
EXTT2=
EXTT3=
EXTT4=
EXTT5=
EXTT6=
EXTT7=
EXTT8=
EXTT9=
PLAYORDER=
